PathFileType	4	(X/Y/Z)	E:\Marcel_BSc\Ayumi_22_01_2025\22-01-2025\conv_dl_2.trc
DataRate	CameraRate	NumFrames	NumMarkers	Units	OrigDataRate	OrigDataStartFrame	OrigNumFrames
200.0	200.0	4	48	mm	200.0	1158	2314	
Frame#	Time	FHD			LBHD			RBHD			RBAR			LBAR			RSACR			LSACR			LASI			USACR			LTHI2			C7			CLAV			T10			RSHO			LSHO			LTHI1			LTHI3			LTIB1			LTIB2			LTIB3			LMMAL			LLMAL			LHEE			LMT1			LMT5			LMT3			RTHI1			RTHI2			RTHI3			RTIB1			RTIB3			RTIB2			RLMAL			RMMAL			RHEE			RMT5			RMT1			RMT3			LDUPA			LMUPA			LUUPA			LRAD			RUL			RRAD			RUFIN			RMUPA			RDUPA			RUUPA			
		X1	Y1	Z1	X2	Y2	Z2	X3	Y3	Z3	X4	Y4	Z4	X5	Y5	Z5	X6	Y6	Z6	X7	Y7	Z7	X8	Y8	Z8	X9	Y9	Z9	X10	Y10	Z10	X11	Y11	Z11	X12	Y12	Z12	X13	Y13	Z13	X14	Y14	Z14	X15	Y15	Z15	X16	Y16	Z16	X17	Y17	Z17	X18	Y18	Z18	X19	Y19	Z19	X20	Y20	Z20	X21	Y21	Z21	X22	Y22	Z22	X23	Y23	Z23	X24	Y24	Z24	X25	Y25	Z25	X26	Y26	Z26	X27	Y27	Z27	X28	Y28	Z28	X29	Y29	Z29	X30	Y30	Z30	X31	Y31	Z31	X32	Y32	Z32	X33	Y33	Z33	X34	Y34	Z34	X35	Y35	Z35	X36	Y36	Z36	X37	Y37	Z37	X38	Y38	Z38	X39	Y39	Z39	X40	Y40	Z40	X41	Y41	Z41	X42	Y42	Z42	X43	Y43	Z43	X44	Y44	Z44	X45	Y45	Z45	X46	Y46	Z46	X47	Y47	Z47	X48	Y48	Z48	
1158	5.78	-31.277082	1419.0387	-673.15973	-25.382261	1406.8063	-604.13654	11.102086	1373.3712	-733.86591	272.35452	508.35489	-1731.2307	186.86771	585.16644	487.64679	486.01425	963.55487	-661.59845	478.84207	968.37329	-588.77771				475.3429	975.09338	-626.24695	309.7804	559.0578	-423.78677	120.25342	1244.0338	-630.45154	69.03553	1099.1678	-636.70587	343.44937	1103.4067	-632.25708	61.084343	1105.9349	-786.43121	64.493187	1117.0363	-465.07776	363.99191	596.73535	-423.53641	352.96408	532.46808	-436.9971	274.84906	239.28442	-424.09924	326.63416	232.46606	-425.55539	294.52008	176.60545	-431.75919	283.49841	74.446823	-517.6604	305.81366	70.458168	-443.61487	343.01852	34.93335	-488.67221	146.02101	45.46788	-469.36572	175.6534	27.225233	-395.81903	148.45078	42.228638	-435.16177	377.39609	588.80267	-818.49554	322.91989	552.60809	-820.21124	365.06668	527.11108	-804.07043	286.87698	275.37189	-816.33234	305.1954	213.45529	-803.93579	337.11053	269.82516	-811.81781	311.3934	72.395226	-776.73938	273.44641	81.761772	-709.19208	349.14001	31.482201	-728.41357	178.79475	30.543285	-820.71729	148.60364	44.376217	-760.98975	156.94206	40.678951	-792.09271	214.71558	960.89801	-389.7175	167.78125	947.3468	-400.75906	151.33688	1006.6901	-407.02072	240.66264	634.05859	-338.92859	191.64299	613.24622	-908.68542	192.42569	606.47681	-845.72717	195.59073	531.99176	-848.1651	134.47897	1011.8967	-855.95319	151.05629	953.27625	-870.21527	180.42363	1026.9991	-866.27954
1159	5.785	-27.607567	1423.8593	-672.83429	-21.56761	1411.5526	-603.8443	14.28072	1378.0521	-733.71857	272.36859	511.13922	-1731.5085	185.89363	588.39392	487.66721	485.96756	963.33795	-661.86725	479.02362	968.28064	-589.04236				475.40994	975.02075	-626.50415	303.26205	555.55017	-430.99753	122.99484	1247.7135	-630.47296	70.377426	1102.7863	-636.9679	344.87482	1104.5565	-632.39789	62.417141	1109.5568	-786.2923	66.380325	1121.2953	-464.85989	363.23169	596.88	-423.57104	352.20618	532.66742	-437.11087	274.67911	239.21471	-423.93622	326.47644	232.45233	-425.57562	294.28766	176.68204	-431.71838	283.45099	74.431717	-517.63293	305.75479	70.519287	-443.57086	342.99866	34.967979	-488.66705	146.01694	45.470818	-469.32935	175.71739	27.25927	-395.71912	148.46759	42.188946	-435.16333	375.67828	589.43573	-818.81879	321.67471	552.76666	-820.71021	363.35788	527.66461	-804.20593	286.19287	275.3739	-816.58398	304.77689	213.50352	-804.07532	336.47318	269.94482	-812.02466	311.34415	72.441925	-776.77063	273.35419	81.768906	-709.25299	349.1156	31.506577	-728.41541	178.80424	30.527559	-820.72827	148.60342	44.368275	-761.00421	156.96718	40.634987	-792.09113	215.69853	964.09808	-389.68295	168.60391	950.84198	-400.73242	152.61935	1010.3375	-406.96179	240.23967	637.23853	-338.88882	191.39113	616.58929	-908.66785	192.15109	609.59784	-846.28235	195.15196	535.16083	-848.18909	135.48471	1015.4437	-855.8642	151.7915	956.72516	-870.19427	181.49979	1030.3263	-866.25934
1160	5.79	-23.920124	1428.5908	-672.51575	-17.834232	1416.3217	-603.55988	17.546057	1382.6826	-733.50494	272.2963	514.68408	-1731.2095	184.98106	591.61621	487.70309	485.7363	963.24133	-662.19867	478.94659	968.17175	-589.24512				475.48022	974.88623	-626.75507	296.72263	551.97314	-437.93155	125.99957	1251.2175	-630.41479	71.80957	1106.7798	-636.83496	346.24753	1105.8088	-632.47595	64.291039	1113.7209	-786.51947	67.116562	1124.6045	-470.99643	362.37991	597.11188	-423.71982	351.45752	532.82288	-437.19272	274.56223	239.04712	-423.78397	326.37756	232.36458	-425.58002	294.16373	176.6468	-431.67877	283.38327	74.476463	-517.60077	305.65594	70.580574	-443.56982	342.98007	35.001732	-488.6514	145.95984	45.303711	-469.65186	175.6662	27.2227	-395.66385	148.45839	42.20462	-435.13156	374.49857	589.20264	-819.16693	319.81378	553.47827	-820.54053	361.97772	527.92267	-804.51917	285.64432	275.27271	-816.79138	304.336	213.53632	-804.24768	335.88855	270.03641	-812.17804	311.306	72.493347	-776.78516	273.26434	81.774345	-709.32343	349.13428	31.571627	-728.44653	178.82211	30.511227	-820.7594	148.58621	44.356243	-761.02112	156.99178	40.586418	-792.09534	216.64944	967.4118	-389.59787	169.57417	954.41473	-400.62585	153.79565	1014.0626	-406.90829	239.85062	640.49854	-338.86655	191.14038	619.85956	-908.68756	191.76907	612.85016	-846.30249	194.6862	538.49182	-848.18445	136.53369	1018.9487	-855.78632	152.53244	960.22156	-870.17084	182.57124	1033.6774	-866.20905
1161	5.795	-20.219229	1433.4469	-672.12549	-14.119549	1421.045	-603.21759	20.723362	1387.2886	-733.37299	272.05127	517.8833	-1731.3234	184.01479	594.87311	487.65457	485.55984	963.05652	-662.52313	478.93994	967.93939	-589.48053				475.53867	974.71643	-627.01062	295.9563	552.1153	-437.82928	128.94716	1255.0155	-630.42798	73.298607	1110.8375	-636.74915	347.69299	1106.9128	-632.56604	65.710228	1117.5345	-786.28308	70.334641	1129.8983	-464.34995	361.56763	597.33728	-423.77576	350.66501	532.98096	-437.22379	274.15558	239.10085	-423.62274	326.03827	232.50996	-425.54849	293.9563	176.65712	-431.56406	283.31039	74.537079	-517.5459	305.59119	70.612434	-443.54446	342.98523	35.0135	-488.6582	145.98796	45.32552	-469.59241	175.63818	27.200758	-395.61908	148.46107	42.223572	-435.09622	373.0592	589.53619	-819.36945	318.51208	553.5838	-820.901	360.62473	528.08508	-804.83453	285.04645	275.17111	-817.05969	303.97031	213.49077	-804.42194	335.30344	270.11325	-812.36005	311.22159	72.546417	-776.81549	273.15482	81.762154	-709.36102	349.12054	31.58288	-728.46191	178.82585	30.478626	-820.79553	148.57465	44.361797	-761.03528	157.01318	40.531567	-792.09814	217.74174	970.73096	-389.53143	170.47896	958.01892	-400.57547	155.22014	1017.718	-406.85062	239.435	643.71667	-338.82947	191.03618	623.21252	-908.70703	191.4608	616.31946	-845.7771	194.42844	541.85712	-848.11102	137.58566	1022.5311	-855.70081	153.31326	963.68176	-870.151	183.68796	1036.9779	-866.18396
